<svg width="23" height="23" viewBox="0 0 23 23" fill="none" xmlns="http://www.w3.org/2000/svg">
<g clip-path="url(#clip0)">
<path d="M19.7141 7.39331H15.607C15.1533 7.39331 14.7856 7.76108 14.7856 8.21475C14.7856 8.66843 15.1533 9.0362 15.607 9.0362H19.7141C20.1678 9.0362 20.5356 9.40396 20.5356 9.85764V20.5362C20.5356 20.9899 20.1678 21.3577 19.7141 21.3577H3.28557C2.83189 21.3577 2.46413 20.9899 2.46413 20.5362V9.85759C2.46413 9.40392 2.83189 9.03615 3.28557 9.03615H7.3927C7.84638 9.03615 8.21414 8.66838 8.21414 8.21471C8.21414 7.76103 7.84638 7.39331 7.3927 7.39331H3.28557C1.92459 7.39331 0.821289 8.49661 0.821289 9.85759V20.5362C0.821289 21.8972 1.92459 23.0005 3.28557 23.0005H19.7141C21.0751 23.0005 22.1784 21.8972 22.1784 20.5362V9.85759C22.1784 8.49661 21.0751 7.39331 19.7141 7.39331Z" fill="#787878"/>
<path d="M16.1689 11.7407C15.8505 11.4333 15.3459 11.4333 15.0276 11.7407L12.321 14.4456V0.821444C12.321 0.367766 11.9532 0 11.4996 0C11.0459 0 10.6781 0.367766 10.6781 0.821444V14.4457L7.97313 11.7407C7.64681 11.4255 7.12681 11.4345 6.81165 11.7608C6.50419 12.0792 6.50419 12.5839 6.81165 12.9022L10.9188 17.0093C11.2392 17.3305 11.7593 17.3311 12.0804 17.0107C12.0809 17.0103 12.0814 17.0098 12.0819 17.0093L16.1891 12.9022C16.5043 12.5758 16.4952 12.0558 16.1689 11.7407Z" fill="#787878"/>
</g>
<defs>
<clipPath id="clip0">
<rect width="23" height="23" fill="white"/>
</clipPath>
</defs>
</svg>
