<svg width="15" height="15" viewBox="0 0 15 15" fill="none" xmlns="http://www.w3.org/2000/svg">
<path d="M7.5 0C3.35786 0 0 3.35786 0 7.5C0 11.6421 3.35786 15 7.5 15C11.6421 15 15 11.6421 15 7.5C15 5.51088 14.2098 3.60322 12.8033 2.1967C11.3968 0.790176 9.48912 0 7.5 0ZM7.5 13.5C4.18629 13.5 1.5 10.8137 1.5 7.5C1.5 4.18629 4.18629 1.5 7.5 1.5C10.8137 1.5 13.5 4.18629 13.5 7.5C13.5 9.0913 12.8679 10.6174 11.7426 11.7426C10.6174 12.8679 9.0913 13.5 7.5 13.5ZM7.875 9H7.125C6.91789 9 6.75 9.16789 6.75 9.375V10.125C6.75 10.3321 6.91789 10.5 7.125 10.5H7.875C8.08211 10.5 8.25 10.3321 8.25 10.125V9.375C8.25 9.16789 8.08211 9 7.875 9ZM8.01 4.49999H6.99C6.88223 4.49922 6.77934 4.54484 6.70756 4.62523C6.63579 4.70562 6.60206 4.81301 6.615 4.92L6.915 7.335C6.92644 7.42968 7.00713 7.50069 7.1025 7.5H7.8975C7.99287 7.50069 8.07356 7.42968 8.085 7.335L8.385 4.92C8.39794 4.81301 8.36421 4.70562 8.29244 4.62523C8.22066 4.54484 8.11777 4.49922 8.01 4.49999Z" fill="#787878"/>
</svg>
