<svg width="23" height="23" viewBox="0 0 23 23" fill="none" xmlns="http://www.w3.org/2000/svg">
<path d="M11.4618 21.0519H2.86543C2.33818 21.0519 1.9103 20.624 1.9103 20.0968V2.90405C1.9103 2.3768 2.33823 1.94892 2.86543 1.94892H11.4618C11.99 1.94892 12.4169 1.52198 12.4169 0.993793C12.4169 0.465602 11.99 0.0385742 11.4618 0.0385742H2.86543C1.28562 0.0385742 0 1.32424 0 2.90405V20.0967C0 21.6765 1.28562 22.9622 2.86543 22.9622H11.4618C11.99 22.9622 12.4169 22.5352 12.4169 22.007C12.4169 21.4788 11.99 21.0519 11.4618 21.0519Z" fill="#787878"/>
<path d="M22.7148 10.8196L16.9075 5.0887C16.533 4.7181 15.9275 4.7229 15.5569 5.09827C15.1863 5.47364 15.1901 6.07824 15.5664 6.44885L19.7165 10.5445H8.59575C8.06756 10.5445 7.64062 10.9714 7.64062 11.4996C7.64062 12.0278 8.06756 12.4548 8.59575 12.4548H19.7165L15.5664 16.5505C15.1901 16.9211 15.1873 17.5257 15.5569 17.901C15.7441 18.0902 15.9905 18.1857 16.2369 18.1857C16.4796 18.1857 16.7221 18.094 16.9075 17.9106L22.7148 12.1797C22.8962 12.0001 22.9994 11.7556 22.9994 11.4996C22.9994 11.2437 22.8972 11.0002 22.7148 10.8196Z" fill="#787878"/>
</svg>
