<svg width="50" height="36" viewBox="0 0 50 36" fill="none" xmlns="http://www.w3.org/2000/svg">
<g clip-path="url(#clip0)">
<path d="M45.2632 0H4.73684C2.12076 0 0 2.12076 0 4.73684V30.9774C0 33.5935 2.12076 35.7143 4.73684 35.7143H45.2632C47.8792 35.7143 50 33.5935 50 30.9774V4.73684C50 2.12076 47.8792 0 45.2632 0Z" fill="#353A48"/>
<path fill-rule="evenodd" clip-rule="evenodd" d="M31.5784 8.17712C36.9559 8.17712 41.3152 12.5922 41.3152 18.0385C41.3152 23.4848 36.9559 27.8999 31.5784 27.8999C29.1684 27.8999 26.9628 27.0131 25.2626 25.5442C23.5636 27.0127 21.3575 27.8999 18.9468 27.8999C13.5693 27.8999 9.20996 23.4848 9.20996 18.0385C9.20996 12.5922 13.5693 8.17712 18.9468 8.17712C21.3575 8.17712 23.5636 9.06441 25.264 10.5341C26.9628 9.06392 29.1684 8.17712 31.5784 8.17712Z" fill="#FF5E00"/>
<path fill-rule="evenodd" clip-rule="evenodd" d="M18.9468 8.17712C21.3575 8.17712 23.5636 9.06441 25.264 10.5341C23.169 12.3417 21.8415 15.0331 21.8415 18.0385C21.8415 21.044 23.169 23.7354 25.2626 25.5442C23.5636 27.0127 21.3575 27.8999 18.9468 27.8999C13.5693 27.8999 9.20996 23.4848 9.20996 18.0385C9.20996 12.5922 13.5693 8.17712 18.9468 8.17712Z" fill="#ED0006"/>
<path fill-rule="evenodd" clip-rule="evenodd" d="M31.5783 8.17712C36.9558 8.17712 41.3151 12.5922 41.3151 18.0385C41.3151 23.4848 36.9558 27.8999 31.5783 27.8999C29.1679 27.8999 26.9621 27.0129 25.2617 25.5435C27.3563 23.7348 28.6835 21.0436 28.6835 18.0385C28.6835 15.0334 27.3563 12.3423 25.2632 10.5335C26.9621 9.06417 29.1679 8.17712 31.5783 8.17712Z" fill="#F9A000"/>
</g>
<defs>
<clipPath id="clip0">
<rect width="50" height="35.7143" fill="white"/>
</clipPath>
</defs>
</svg>
