<svg width="16" height="22" viewBox="0 0 16 22" fill="none" xmlns="http://www.w3.org/2000/svg">
<path d="M12.2592 10.6403C11.9854 10.9851 11.6778 11.3034 11.3245 11.5907C13.3412 12.7475 14.7026 14.9223 14.7026 17.4091C14.7026 18.7529 11.7584 19.8055 7.99996 19.8055C4.24146 19.8055 1.29728 18.7529 1.29728 17.4091C1.29728 14.9223 2.65876 12.7475 4.67541 11.5907C4.32216 11.3034 4.01455 10.9851 3.7407 10.6403C1.49491 12.0585 0 14.5624 0 17.4091C0 18.2715 0.472191 19.4733 2.72184 20.3016C4.1251 20.8183 5.99958 21.1028 8 21.1028C10.0004 21.1028 11.8749 20.8183 13.2782 20.3016C15.5278 19.4733 16 18.2715 16 17.4091C15.9999 14.5624 14.505 12.0585 12.2592 10.6403Z" fill="#787878"/>
<path d="M7.99932 11.4952C10.5206 11.4952 12.462 9.0581 12.462 6.17629C12.462 3.29315 10.5196 0.857361 7.99932 0.857361C5.47809 0.857361 3.53662 3.29444 3.53662 6.17625C3.53662 9.05939 5.47911 11.4952 7.99932 11.4952ZM7.99932 2.15464C9.7447 2.15464 11.1647 3.95872 11.1647 6.17625C11.1647 8.39378 9.7447 10.1979 7.99932 10.1979C6.25393 10.1979 4.8339 8.39378 4.8339 6.17625C4.8339 3.95872 6.25393 2.15464 7.99932 2.15464Z" fill="#787878"/>
</svg>
