<svg width="23" height="23" viewBox="0 0 23 23" fill="none" xmlns="http://www.w3.org/2000/svg">
<path d="M21.5161 4.54089H1.48386C0.665652 4.54089 0 5.20655 0 6.02475V20.0028C0 20.821 0.665652 21.4867 1.48386 21.4867H21.5161C22.3343 21.4867 23 20.821 23 20.0028V6.02475C23 5.20655 22.3343 4.54089 21.5161 4.54089ZM21.2193 19.706H1.78066V6.32151H21.2194V19.706H21.2193Z" fill="#787878"/>
<path d="M14.7203 1.51343H8.31003C7.49182 1.51343 6.82617 2.17908 6.82617 2.99729V5.43084H8.60683V3.29409H14.4236V5.43084H16.2042V2.99729C16.2042 2.17908 15.5386 1.51343 14.7203 1.51343Z" fill="#787878"/>
<path d="M14.5421 12.1084H8.48796C7.9962 12.1084 7.59766 12.5069 7.59766 12.9987C7.59766 13.4905 7.9962 13.889 8.48796 13.889H14.5422C15.0339 13.889 15.4325 13.4905 15.4325 12.9987C15.4325 12.5069 15.0339 12.1084 14.5421 12.1084Z" fill="#787878"/>
<path d="M11.5153 9.08118C11.0235 9.08118 10.625 9.47972 10.625 9.97148V16.0257C10.625 16.5175 11.0235 16.916 11.5153 16.916C12.0071 16.916 12.4056 16.5177 12.4056 16.0257V9.97153C12.4057 9.47977 12.0071 9.08118 11.5153 9.08118Z" fill="#787878"/>
</svg>
