<svg width="23" height="30" viewBox="0 0 23 30" fill="none" xmlns="http://www.w3.org/2000/svg">
<path d="M17.6226 14.0631C17.229 14.5587 16.7868 15.0163 16.279 15.4293C19.1779 17.0921 21.135 20.2184 21.135 23.7933C21.135 25.7249 16.9028 27.238 11.4999 27.238C6.0971 27.238 1.86484 25.7249 1.86484 23.7933C1.86484 20.2184 3.82196 17.0921 6.72091 15.4293C6.2131 15.0163 5.77092 14.5588 5.37726 14.0631C2.14894 16.1018 0 19.7011 0 23.7933C0 25.0329 0.678774 26.7605 3.91264 27.9512C5.92983 28.6939 8.6244 29.1029 11.5 29.1029C14.3756 29.1029 17.0702 28.6939 19.0874 27.9512C22.3212 26.7605 23 25.0329 23 23.7933C22.9999 19.7011 20.8509 16.1018 17.6226 14.0631Z" fill="#787878"/>
<path d="M11.4991 15.2919C15.1234 15.2919 17.9142 11.7886 17.9142 7.64596C17.9142 3.50145 15.122 0 11.4991 0C7.87484 0 5.08398 3.5033 5.08398 7.6459C5.08398 11.7904 7.87631 15.2919 11.4991 15.2919ZM11.4991 1.86484C14.0081 1.86484 16.0494 4.4582 16.0494 7.6459C16.0494 10.8336 14.0081 13.427 11.4991 13.427C8.99012 13.427 6.94883 10.8336 6.94883 7.6459C6.94883 4.4582 8.99012 1.86484 11.4991 1.86484Z" fill="#787878"/>
</svg>
