<svg width="23" height="23" viewBox="0 0 23 23" fill="none" xmlns="http://www.w3.org/2000/svg">
<path d="M21.357 3.28572H15.607V2.46428C15.607 1.1033 14.5037 0 13.1428 0H9.85703C8.49604 0 7.39275 1.1033 7.39275 2.46428V3.28572H1.64273C1.18905 3.28572 0.821289 3.65349 0.821289 4.10717C0.821289 4.56084 1.1891 4.92856 1.64273 4.92856H2.5356L4.10702 22.2533C4.14576 22.6775 4.50246 23.0017 4.92846 23H18.0713C18.4973 23.0018 18.854 22.6775 18.8928 22.2533L20.4641 4.92856H21.3571C21.8107 4.92856 22.1785 4.5608 22.1785 4.10712C22.1785 3.65344 21.8107 3.28572 21.357 3.28572ZM9.03559 2.46428C9.03559 2.0106 9.40335 1.64284 9.85703 1.64284H13.1428C13.5964 1.64284 13.9642 2.0106 13.9642 2.46428V3.28572H9.03563V2.46428H9.03559ZM17.3214 21.3571H5.67843L4.18918 4.92856H8.21419H18.8147L17.3214 21.3571Z" fill="#787878"/>
<path d="M9.03597 18.8379C9.03587 18.8368 9.03583 18.8356 9.03573 18.8345L8.21428 7.33455C8.18208 6.88087 7.78818 6.53924 7.33455 6.57144C6.88087 6.60364 6.53924 6.99754 6.57144 7.45117L7.39288 18.9511C7.42354 19.3819 7.7825 19.7154 8.21433 19.7143H8.27348C8.72606 19.6828 9.06745 19.2905 9.03597 18.8379Z" fill="#787878"/>
<path d="M11.4997 6.57129C11.046 6.57129 10.6782 6.93905 10.6782 7.39273V18.8927C10.6782 19.3464 11.046 19.7142 11.4997 19.7142C11.9533 19.7142 12.3211 19.3464 12.3211 18.8927V7.39273C12.3211 6.93905 11.9533 6.57129 11.4997 6.57129Z" fill="#787878"/>
<path d="M15.6653 6.57046C15.2117 6.53826 14.8178 6.87989 14.7856 7.33357L13.9642 18.8335C13.9309 19.286 14.2707 19.6797 14.7231 19.713C14.7245 19.7131 14.7259 19.7132 14.7273 19.7133H14.7856C15.2174 19.7144 15.5764 19.3809 15.6071 18.9502L16.4285 7.45019C16.4607 6.99656 16.119 6.60271 15.6653 6.57046Z" fill="#787878"/>
</svg>
