<svg width="23" height="23" viewBox="0 0 23 23" fill="none" xmlns="http://www.w3.org/2000/svg">
<path d="M19.8048 9.70117C19.494 10.1182 19.1382 10.4875 18.748 10.7985C20.4007 11.8528 21.4991 13.7024 21.4991 15.8039C21.4991 16.486 20.4982 16.9563 19.9017 17.176C19.4365 17.3473 18.8896 17.4875 18.2917 17.5935C18.3111 17.846 18.321 18.1013 18.321 18.3587C18.321 18.5815 18.3016 18.8412 18.2451 19.1239C19.0486 18.999 19.7863 18.8174 20.4202 18.584C22.5521 17.7991 22.9996 16.6389 22.9996 15.8039C22.9995 13.2793 21.7342 11.0452 19.8048 9.70117Z" fill="#F8951B"/>
<path d="M15.5667 0.75708C14.6298 0.75708 13.7456 1.12899 13.0298 1.81464C13.3115 2.17535 13.5576 2.56506 13.7667 2.97729C14.2464 2.43012 14.8767 2.09693 15.5667 2.09693C17.0649 2.09693 18.2838 3.66499 18.2838 5.59236C18.2838 7.51973 17.0649 9.08779 15.5667 9.08779C15.1161 9.08779 14.6911 8.9451 14.3166 8.69428C14.195 9.13756 14.0352 9.56553 13.84 9.97291C14.3722 10.2706 14.9583 10.4277 15.5667 10.4277C17.8589 10.4277 19.6237 8.21203 19.6237 5.59236C19.6237 2.97243 17.8587 0.75708 15.5667 0.75708Z" fill="#F8951B"/>
<path d="M13.0038 11.3162C12.6793 11.7265 12.3343 12.0708 11.975 12.3611C14.0176 13.5798 15.3888 15.8116 15.3888 18.358C15.3888 19.2181 14.1833 19.7904 13.4647 20.055C12.163 20.5343 10.3209 20.8091 8.41054 20.8091C6.50017 20.8091 4.65798 20.5343 3.35634 20.055C2.63773 19.7904 1.43217 19.2181 1.43217 18.358C1.43217 15.8116 2.80343 13.5797 4.84603 12.3611C4.48673 12.0709 4.14167 11.7265 3.81723 11.3162C1.5206 12.8194 0 15.4143 0 18.3581C0 19.2647 0.496447 20.5282 2.8615 21.399C4.33673 21.9422 6.30741 22.2413 8.41049 22.2413C10.5136 22.2413 12.4842 21.9422 13.9595 21.399C16.3245 20.5282 16.821 19.2647 16.821 18.3581C16.821 15.4143 15.3004 12.8194 13.0038 11.3162Z" fill="#F8951B"/>
<path d="M8.41044 12.1415C11.0614 12.1415 13.1021 9.579 13.1021 6.54961C13.1021 3.52017 11.0611 0.957764 8.41044 0.957764C5.7599 0.957764 3.71875 3.51967 3.71875 6.54961C3.71875 9.5796 5.7601 12.1415 8.41044 12.1415ZM8.41044 2.38989C10.2078 2.38989 11.6699 4.25593 11.6699 6.54956C11.6699 8.84318 10.2077 10.7092 8.41044 10.7092C6.61316 10.7092 5.15092 8.84318 5.15092 6.54956C5.15092 4.25593 6.61316 2.38989 8.41044 2.38989Z" fill="#F8951B"/>
</svg>
