<svg width="30" height="22" viewBox="0 0 30 22" fill="none" xmlns="http://www.w3.org/2000/svg">
<path d="M27.1579 0H2.84211C1.27245 0 0 1.27245 0 2.84211V18.5865C0 20.1561 1.27245 21.4286 2.84211 21.4286H27.1579C28.7275 21.4286 30 20.1561 30 18.5865V2.84211C30 1.27245 28.7275 0 27.1579 0Z" fill="#224DBA"/>
<path fill-rule="evenodd" clip-rule="evenodd" d="M10.2217 14.2918H8.4637L7.14541 9.14897C7.08284 8.9124 6.94998 8.70325 6.75456 8.60468C6.26684 8.35697 5.72941 8.15983 5.14313 8.0604V7.8624H7.97513C8.36598 7.8624 8.65913 8.15983 8.70798 8.50525L9.39198 12.215L11.1491 7.8624H12.8583L10.2217 14.2918ZM13.8354 14.2918H12.1751L13.5423 7.8624H15.2026L13.8354 14.2918ZM17.3506 9.64354C17.3994 9.29725 17.6926 9.09925 18.0346 9.09925C18.572 9.04954 19.1574 9.14897 19.646 9.39583L19.9391 8.01154C19.4506 7.81354 18.9131 7.71411 18.4254 7.71411C16.814 7.71411 15.6414 8.60468 15.6414 9.84068C15.6414 10.781 16.472 11.2747 17.0583 11.5721C17.6926 11.8687 17.9368 12.0667 17.888 12.3633C17.888 12.8081 17.3994 13.0061 16.9117 13.0061C16.3254 13.0061 15.7391 12.8578 15.2026 12.6101L14.9094 13.9953C15.4957 14.2421 16.13 14.3415 16.7163 14.3415C18.5231 14.3904 19.646 13.5007 19.646 12.1653C19.646 10.4835 17.3506 10.385 17.3506 9.64354ZM25.4566 14.2918L24.1383 7.8624H22.7223C22.4291 7.8624 22.136 8.0604 22.0383 8.35697L19.5971 14.2918H21.3063L21.6474 13.3524H23.7474L23.9428 14.2918H25.4566ZM22.9666 9.59383L23.4543 12.017H22.0871L22.9666 9.59383Z" fill="white"/>
</svg>
