<svg width="23" height="21" viewBox="0 0 23 21" fill="none" xmlns="http://www.w3.org/2000/svg">
<path d="M20.7336 3.07282C20.6096 1.4729 19.2691 0.20874 17.638 0.20874H3.10599C1.39334 0.20874 0 1.60208 0 3.31473V17.6854C0 19.3981 1.39334 20.7914 3.10599 20.7914H19.8941C21.6067 20.7914 23 19.3981 23 17.6854V6.06255C23 4.64087 22.0395 3.4401 20.7336 3.07282ZM3.10599 1.65971H17.638C18.4276 1.65971 19.0894 2.21566 19.2535 2.95661H3.10599C2.49789 2.95661 1.93052 3.13295 1.45097 3.4362V3.31473C1.45097 2.40216 2.19342 1.65971 3.10599 1.65971ZM19.894 19.3404H3.10599C2.19342 19.3404 1.45097 18.598 1.45097 17.6854V6.06255C1.45097 5.14998 2.19342 4.40754 3.10599 4.40754H19.8941C20.8066 4.40754 21.5491 5.14998 21.5491 6.06255V8.59441H16.9229C15.0897 8.59441 13.5983 10.0859 13.5983 11.9191C13.5983 13.7523 15.0898 15.2438 16.9229 15.2438H21.549V17.6854C21.549 18.598 20.8066 19.3404 19.894 19.3404ZM21.549 13.7928H16.9229C15.8898 13.7928 15.0493 12.9523 15.0493 11.9191C15.0493 10.8859 15.8898 10.0454 16.9229 10.0454H21.549V13.7928Z" fill="#787878"/>
</svg>
